<?xml version="1.0" encoding="UTF-8"?>
<!DOCTYPE svg PUBLIC "-//W3C//DTD SVG 1.1//EN" "http://www.w3.org/Graphics/SVG/1.1/DTD/svg11.dtd">
<svg xmlns="http://www.w3.org/2000/svg" version="1.1" width="800px" height="800px" style="shape-rendering:geometricPrecision; text-rendering:geometricPrecision; image-rendering:optimizeQuality; fill-rule:evenodd; clip-rule:evenodd" xmlns:xlink="http://www.w3.org/1999/xlink">
<g><path style="opacity:1" fill="#f5f5f5" d="M -0.5,-0.5 C 259.167,-0.5 518.833,-0.5 778.5,-0.5C 778.5,5.83333 778.5,12.1667 778.5,18.5C 785.167,18.5 791.833,18.5 798.5,18.5C 798.5,25.1667 798.5,31.8333 798.5,38.5C 791.833,38.5 785.167,38.5 778.5,38.5C 778.5,45.5 778.5,52.5 778.5,59.5C 785.167,59.5 791.833,59.5 798.5,59.5C 798.5,66.1667 798.5,72.8333 798.5,79.5C 791.833,79.5 785.167,79.5 778.5,79.5C 778.5,86.1667 778.5,92.8333 778.5,99.5C 785.167,99.5 791.833,99.5 798.5,99.5C 798.5,106.167 798.5,112.833 798.5,119.5C 791.833,119.5 785.167,119.5 778.5,119.5C 778.5,126.167 778.5,132.833 778.5,139.5C 785.167,139.5 791.833,139.5 798.5,139.5C 798.5,146.167 798.5,152.833 798.5,159.5C 791.833,159.5 785.167,159.5 778.5,159.5C 778.5,166.167 778.5,172.833 778.5,179.5C 785.167,179.5 791.833,179.5 798.5,179.5C 798.5,186.167 798.5,192.833 798.5,199.5C 791.833,199.5 785.167,199.5 778.5,199.5C 778.5,206.167 778.5,212.833 778.5,219.5C 785.167,219.5 791.833,219.5 798.5,219.5C 798.5,226.167 798.5,232.833 798.5,239.5C 791.833,239.5 785.167,239.5 778.5,239.5C 778.5,246.167 778.5,252.833 778.5,259.5C 785.167,259.5 791.833,259.5 798.5,259.5C 798.5,266.167 798.5,272.833 798.5,279.5C 791.833,279.5 785.167,279.5 778.5,279.5C 778.5,286.167 778.5,292.833 778.5,299.5C 785.167,299.5 791.833,299.5 798.5,299.5C 798.5,306.167 798.5,312.833 798.5,319.5C 791.833,319.5 785.167,319.5 778.5,319.5C 771.833,319.5 765.167,319.5 758.5,319.5C 758.5,312.833 758.5,306.167 758.5,299.5C 754.833,299.5 751.167,299.5 747.5,299.5C 744.86,296.194 741.86,293.194 738.5,290.5C 738.5,286.833 738.5,283.167 738.5,279.5C 731.833,279.5 725.167,279.5 718.5,279.5C 718.5,272.833 718.5,266.167 718.5,259.5C 711.833,259.5 705.167,259.5 698.5,259.5C 698.5,266.167 698.5,272.833 698.5,279.5C 691.833,279.5 685.167,279.5 678.5,279.5C 678.5,272.833 678.5,266.167 678.5,259.5C 671.833,259.5 665.167,259.5 658.5,259.5C 658.5,266.167 658.5,272.833 658.5,279.5C 651.833,279.5 645.167,279.5 638.5,279.5C 638.5,272.833 638.5,266.167 638.5,259.5C 631.833,259.5 625.167,259.5 618.5,259.5C 618.5,266.167 618.5,272.833 618.5,279.5C 611.833,279.5 605.167,279.5 598.5,279.5C 598.5,272.833 598.5,266.167 598.5,259.5C 591.833,259.5 585.167,259.5 578.5,259.5C 578.5,266.167 578.5,272.833 578.5,279.5C 571.833,279.5 565.167,279.5 558.5,279.5C 558.5,272.833 558.5,266.167 558.5,259.5C 551.833,259.5 545.167,259.5 538.5,259.5C 538.5,266.167 538.5,272.833 538.5,279.5C 531.833,279.5 525.167,279.5 518.5,279.5C 518.5,272.833 518.5,266.167 518.5,259.5C 511.833,259.5 505.167,259.5 498.5,259.5C 498.5,266.167 498.5,272.833 498.5,279.5C 491.833,279.5 485.167,279.5 478.5,279.5C 478.5,272.833 478.5,266.167 478.5,259.5C 471.833,259.5 465.167,259.5 458.5,259.5C 458.5,266.167 458.5,272.833 458.5,279.5C 451.833,279.5 445.167,279.5 438.5,279.5C 438.5,272.833 438.5,266.167 438.5,259.5C 431.833,259.5 425.167,259.5 418.5,259.5C 418.5,266.167 418.5,272.833 418.5,279.5C 411.833,279.5 405.167,279.5 398.5,279.5C 398.5,272.833 398.5,266.167 398.5,259.5C 391.833,259.5 385.167,259.5 378.5,259.5C 378.5,266.167 378.5,272.833 378.5,279.5C 371.833,279.5 365.167,279.5 358.5,279.5C 358.5,272.833 358.5,266.167 358.5,259.5C 351.833,259.5 345.167,259.5 338.5,259.5C 338.5,266.167 338.5,272.833 338.5,279.5C 331.833,279.5 325.167,279.5 318.5,279.5C 318.5,272.833 318.5,266.167 318.5,259.5C 311.833,259.5 305.167,259.5 298.5,259.5C 298.5,266.167 298.5,272.833 298.5,279.5C 291.833,279.5 285.167,279.5 278.5,279.5C 278.5,272.833 278.5,266.167 278.5,259.5C 271.833,259.5 265.167,259.5 258.5,259.5C 258.5,266.167 258.5,272.833 258.5,279.5C 251.833,279.5 245.167,279.5 238.5,279.5C 238.5,272.833 238.5,266.167 238.5,259.5C 231.833,259.5 225.167,259.5 218.5,259.5C 218.5,266.167 218.5,272.833 218.5,279.5C 211.833,279.5 205.167,279.5 198.5,279.5C 198.5,272.833 198.5,266.167 198.5,259.5C 191.833,259.5 185.167,259.5 178.5,259.5C 178.5,266.167 178.5,272.833 178.5,279.5C 171.833,279.5 165.167,279.5 158.5,279.5C 158.5,272.833 158.5,266.167 158.5,259.5C 151.833,259.5 145.167,259.5 138.5,259.5C 138.5,266.167 138.5,272.833 138.5,279.5C 131.833,279.5 125.167,279.5 118.5,279.5C 118.5,272.833 118.5,266.167 118.5,259.5C 111.833,259.5 105.167,259.5 98.5,259.5C 98.5,266.167 98.5,272.833 98.5,279.5C 91.8333,279.5 85.1667,279.5 78.5,279.5C 78.5,272.833 78.5,266.167 78.5,259.5C 72.8333,259.5 67.1667,259.5 61.5,259.5C 61.5,266.167 61.5,272.833 61.5,279.5C 54.8333,279.5 48.1667,279.5 41.5,279.5C 41.5,286.167 41.5,292.833 41.5,299.5C 34.8333,299.5 28.1667,299.5 21.5,299.5C 21.5,306.167 21.5,312.833 21.5,319.5C 28.1667,319.5 34.8333,319.5 41.5,319.5C 41.5,326.167 41.5,332.833 41.5,339.5C 34.8333,339.5 28.1667,339.5 21.5,339.5C 21.5,346.167 21.5,352.833 21.5,359.5C 28.1667,359.5 34.8333,359.5 41.5,359.5C 41.5,366.5 41.5,373.5 41.5,380.5C 34.8333,380.5 28.1667,380.5 21.5,380.5C 21.5,387.167 21.5,393.833 21.5,400.5C 28.1667,400.5 34.8333,400.5 41.5,400.5C 41.5,407.167 41.5,413.833 41.5,420.5C 34.8333,420.5 28.1667,420.5 21.5,420.5C 21.5,427.167 21.5,433.833 21.5,440.5C 28.1667,440.5 34.8333,440.5 41.5,440.5C 41.5,447.167 41.5,453.833 41.5,460.5C 34.8333,460.5 28.1667,460.5 21.5,460.5C 21.5,467.167 21.5,473.833 21.5,480.5C 28.1667,480.5 34.8333,480.5 41.5,480.5C 41.5,487.167 41.5,493.833 41.5,500.5C 41.5,507.167 41.5,513.833 41.5,520.5C 48.1667,520.5 54.8333,520.5 61.5,520.5C 61.5,527.167 61.5,533.833 61.5,540.5C 67.1667,540.5 72.8333,540.5 78.5,540.5C 78.5,547.167 78.5,553.833 78.5,560.5C 85.1667,560.5 91.8333,560.5 98.5,560.5C 98.5,573.833 98.5,587.167 98.5,600.5C 105.167,600.5 111.833,600.5 118.5,600.5C 118.5,607.167 118.5,613.833 118.5,620.5C 125.167,620.5 131.833,620.5 138.5,620.5C 138.5,627.167 138.5,633.833 138.5,640.5C 145.167,640.5 151.833,640.5 158.5,640.5C 158.5,647.167 158.5,653.833 158.5,660.5C 165.167,660.5 171.833,660.5 178.5,660.5C 178.5,667.167 178.5,673.833 178.5,680.5C 185.167,680.5 191.833,680.5 198.5,680.5C 198.5,687.5 198.5,694.5 198.5,701.5C 205.167,701.5 211.833,701.5 218.5,701.5C 218.5,708.167 218.5,714.833 218.5,721.5C 225.167,721.5 231.833,721.5 238.5,721.5C 238.5,728.167 238.5,734.833 238.5,741.5C 245.167,741.5 251.833,741.5 258.5,741.5C 258.5,748.167 258.5,754.833 258.5,761.5C 265.167,761.5 271.833,761.5 278.5,761.5C 278.5,768.167 278.5,774.833 278.5,781.5C 285.167,781.5 291.833,781.5 298.5,781.5C 298.5,787.5 298.5,793.5 298.5,799.5C 198.833,799.5 99.1667,799.5 -0.5,799.5C -0.5,532.833 -0.5,266.167 -0.5,-0.5 Z"/></g>
<g><path style="opacity:1" fill="#fdfdfd" d="M 778.5,-0.5 C 785.5,-0.5 792.5,-0.5 799.5,-0.5C 799.5,266.167 799.5,532.833 799.5,799.5C 799.167,799.5 798.833,799.5 798.5,799.5C 798.5,793.5 798.5,787.5 798.5,781.5C 791.833,781.5 785.167,781.5 778.5,781.5C 778.5,774.833 778.5,768.167 778.5,761.5C 785.167,761.5 791.833,761.5 798.5,761.5C 798.5,754.833 798.5,748.167 798.5,741.5C 791.833,741.5 785.167,741.5 778.5,741.5C 778.5,734.833 778.5,728.167 778.5,721.5C 785.167,721.5 791.833,721.5 798.5,721.5C 798.5,714.833 798.5,708.167 798.5,701.5C 791.833,701.5 785.167,701.5 778.5,701.5C 778.5,694.5 778.5,687.5 778.5,680.5C 785.167,680.5 791.833,680.5 798.5,680.5C 798.5,673.833 798.5,667.167 798.5,660.5C 791.833,660.5 785.167,660.5 778.5,660.5C 778.5,653.833 778.5,647.167 778.5,640.5C 785.167,640.5 791.833,640.5 798.5,640.5C 798.5,633.833 798.5,627.167 798.5,620.5C 791.833,620.5 785.167,620.5 778.5,620.5C 778.5,613.833 778.5,607.167 778.5,600.5C 785.167,600.5 791.833,600.5 798.5,600.5C 798.5,593.833 798.5,587.167 798.5,580.5C 791.833,580.5 785.167,580.5 778.5,580.5C 778.5,573.833 778.5,567.167 778.5,560.5C 785.167,560.5 791.833,560.5 798.5,560.5C 798.5,553.833 798.5,547.167 798.5,540.5C 791.833,540.5 785.167,540.5 778.5,540.5C 778.5,533.833 778.5,527.167 778.5,520.5C 785.167,520.5 791.833,520.5 798.5,520.5C 798.5,513.833 798.5,507.167 798.5,500.5C 791.833,500.5 785.167,500.5 778.5,500.5C 778.5,493.833 778.5,487.167 778.5,480.5C 785.167,480.5 791.833,480.5 798.5,480.5C 798.5,473.833 798.5,467.167 798.5,460.5C 791.833,460.5 785.167,460.5 778.5,460.5C 778.5,453.833 778.5,447.167 778.5,440.5C 785.167,440.5 791.833,440.5 798.5,440.5C 798.5,433.833 798.5,427.167 798.5,420.5C 791.833,420.5 785.167,420.5 778.5,420.5C 778.5,413.833 778.5,407.167 778.5,400.5C 785.167,400.5 791.833,400.5 798.5,400.5C 798.5,393.833 798.5,387.167 798.5,380.5C 791.833,380.5 785.167,380.5 778.5,380.5C 778.5,373.5 778.5,366.5 778.5,359.5C 785.167,359.5 791.833,359.5 798.5,359.5C 798.5,352.833 798.5,346.167 798.5,339.5C 791.833,339.5 785.167,339.5 778.5,339.5C 778.5,332.833 778.5,326.167 778.5,319.5C 785.167,319.5 791.833,319.5 798.5,319.5C 798.5,312.833 798.5,306.167 798.5,299.5C 791.833,299.5 785.167,299.5 778.5,299.5C 778.5,292.833 778.5,286.167 778.5,279.5C 785.167,279.5 791.833,279.5 798.5,279.5C 798.5,272.833 798.5,266.167 798.5,259.5C 791.833,259.5 785.167,259.5 778.5,259.5C 778.5,252.833 778.5,246.167 778.5,239.5C 785.167,239.5 791.833,239.5 798.5,239.5C 798.5,232.833 798.5,226.167 798.5,219.5C 791.833,219.5 785.167,219.5 778.5,219.5C 778.5,212.833 778.5,206.167 778.5,199.5C 785.167,199.5 791.833,199.5 798.5,199.5C 798.5,192.833 798.5,186.167 798.5,179.5C 791.833,179.5 785.167,179.5 778.5,179.5C 778.5,172.833 778.5,166.167 778.5,159.5C 785.167,159.5 791.833,159.5 798.5,159.5C 798.5,152.833 798.5,146.167 798.5,139.5C 791.833,139.5 785.167,139.5 778.5,139.5C 778.5,132.833 778.5,126.167 778.5,119.5C 785.167,119.5 791.833,119.5 798.5,119.5C 798.5,112.833 798.5,106.167 798.5,99.5C 791.833,99.5 785.167,99.5 778.5,99.5C 778.5,92.8333 778.5,86.1667 778.5,79.5C 785.167,79.5 791.833,79.5 798.5,79.5C 798.5,72.8333 798.5,66.1667 798.5,59.5C 791.833,59.5 785.167,59.5 778.5,59.5C 778.5,52.5 778.5,45.5 778.5,38.5C 785.167,38.5 791.833,38.5 798.5,38.5C 798.5,31.8333 798.5,25.1667 798.5,18.5C 791.833,18.5 785.167,18.5 778.5,18.5C 778.5,12.1667 778.5,5.83333 778.5,-0.5 Z"/></g>
<g><path style="opacity:1" fill="#ededed" d="M 738.5,290.5 C 734.185,287.845 729.518,286.012 724.5,285C 507.833,284.333 291.167,284.333 74.5,285C 59.2559,288.077 50.2559,297.244 47.5,312.5C 47.5,370.167 47.5,427.833 47.5,485.5C 48.6719,490.842 50.6719,495.842 53.5,500.5C 49.5,500.5 45.5,500.5 41.5,500.5C 41.5,493.833 41.5,487.167 41.5,480.5C 34.8333,480.5 28.1667,480.5 21.5,480.5C 21.5,473.833 21.5,467.167 21.5,460.5C 28.1667,460.5 34.8333,460.5 41.5,460.5C 41.5,453.833 41.5,447.167 41.5,440.5C 34.8333,440.5 28.1667,440.5 21.5,440.5C 21.5,433.833 21.5,427.167 21.5,420.5C 28.1667,420.5 34.8333,420.5 41.5,420.5C 41.5,413.833 41.5,407.167 41.5,400.5C 34.8333,400.5 28.1667,400.5 21.5,400.5C 21.5,393.833 21.5,387.167 21.5,380.5C 28.1667,380.5 34.8333,380.5 41.5,380.5C 41.5,373.5 41.5,366.5 41.5,359.5C 34.8333,359.5 28.1667,359.5 21.5,359.5C 21.5,352.833 21.5,346.167 21.5,339.5C 28.1667,339.5 34.8333,339.5 41.5,339.5C 41.5,332.833 41.5,326.167 41.5,319.5C 34.8333,319.5 28.1667,319.5 21.5,319.5C 21.5,312.833 21.5,306.167 21.5,299.5C 28.1667,299.5 34.8333,299.5 41.5,299.5C 41.5,292.833 41.5,286.167 41.5,279.5C 48.1667,279.5 54.8333,279.5 61.5,279.5C 61.5,272.833 61.5,266.167 61.5,259.5C 67.1667,259.5 72.8333,259.5 78.5,259.5C 78.5,266.167 78.5,272.833 78.5,279.5C 85.1667,279.5 91.8333,279.5 98.5,279.5C 98.5,272.833 98.5,266.167 98.5,259.5C 105.167,259.5 111.833,259.5 118.5,259.5C 118.5,266.167 118.5,272.833 118.5,279.5C 125.167,279.5 131.833,279.5 138.5,279.5C 138.5,272.833 138.5,266.167 138.5,259.5C 145.167,259.5 151.833,259.5 158.5,259.5C 158.5,266.167 158.5,272.833 158.5,279.5C 165.167,279.5 171.833,279.5 178.5,279.5C 178.5,272.833 178.5,266.167 178.5,259.5C 185.167,259.5 191.833,259.5 198.5,259.5C 198.5,266.167 198.5,272.833 198.5,279.5C 205.167,279.5 211.833,279.5 218.5,279.5C 218.5,272.833 218.5,266.167 218.5,259.5C 225.167,259.5 231.833,259.5 238.5,259.5C 238.5,266.167 238.5,272.833 238.5,279.5C 245.167,279.5 251.833,279.5 258.5,279.5C 258.5,272.833 258.5,266.167 258.5,259.5C 265.167,259.5 271.833,259.5 278.5,259.5C 278.5,266.167 278.5,272.833 278.5,279.5C 285.167,279.5 291.833,279.5 298.5,279.5C 298.5,272.833 298.5,266.167 298.5,259.5C 305.167,259.5 311.833,259.5 318.5,259.5C 318.5,266.167 318.5,272.833 318.5,279.5C 325.167,279.5 331.833,279.5 338.5,279.5C 338.5,272.833 338.5,266.167 338.5,259.5C 345.167,259.5 351.833,259.5 358.5,259.5C 358.5,266.167 358.5,272.833 358.5,279.5C 365.167,279.5 371.833,279.5 378.5,279.5C 378.5,272.833 378.5,266.167 378.5,259.5C 385.167,259.5 391.833,259.5 398.5,259.5C 398.5,266.167 398.5,272.833 398.5,279.5C 405.167,279.5 411.833,279.5 418.5,279.5C 418.5,272.833 418.5,266.167 418.5,259.5C 425.167,259.5 431.833,259.5 438.5,259.5C 438.5,266.167 438.5,272.833 438.5,279.5C 445.167,279.5 451.833,279.5 458.5,279.5C 458.5,272.833 458.5,266.167 458.5,259.5C 465.167,259.5 471.833,259.5 478.5,259.5C 478.5,266.167 478.5,272.833 478.5,279.5C 485.167,279.5 491.833,279.5 498.5,279.5C 498.5,272.833 498.5,266.167 498.5,259.5C 505.167,259.5 511.833,259.5 518.5,259.5C 518.5,266.167 518.5,272.833 518.5,279.5C 525.167,279.5 531.833,279.5 538.5,279.5C 538.5,272.833 538.5,266.167 538.5,259.5C 545.167,259.5 551.833,259.5 558.5,259.5C 558.5,266.167 558.5,272.833 558.5,279.5C 565.167,279.5 571.833,279.5 578.5,279.5C 578.5,272.833 578.5,266.167 578.5,259.5C 585.167,259.5 591.833,259.5 598.5,259.5C 598.5,266.167 598.5,272.833 598.5,279.5C 605.167,279.5 611.833,279.5 618.5,279.5C 618.5,272.833 618.5,266.167 618.5,259.5C 625.167,259.5 631.833,259.5 638.5,259.5C 638.5,266.167 638.5,272.833 638.5,279.5C 645.167,279.5 651.833,279.5 658.5,279.5C 658.5,272.833 658.5,266.167 658.5,259.5C 665.167,259.5 671.833,259.5 678.5,259.5C 678.5,266.167 678.5,272.833 678.5,279.5C 685.167,279.5 691.833,279.5 698.5,279.5C 698.5,272.833 698.5,266.167 698.5,259.5C 705.167,259.5 711.833,259.5 718.5,259.5C 718.5,266.167 718.5,272.833 718.5,279.5C 725.167,279.5 731.833,279.5 738.5,279.5C 738.5,283.167 738.5,286.833 738.5,290.5 Z"/></g>
<g><path style="opacity:1" fill="#040707" d="M 738.5,290.5 C 741.86,293.194 744.86,296.194 747.5,299.5C 749.674,303.53 751.007,307.863 751.5,312.5C 748.502,307.986 744.836,303.819 740.5,300C 736.505,297.504 732.172,295.838 727.5,295C 508.833,294.333 290.167,294.333 71.5,295C 64.6649,295.835 58.8316,298.668 54,303.5C 52.2766,306.999 50.1099,309.999 47.5,312.5C 50.2559,297.244 59.2559,288.077 74.5,285C 291.167,284.333 507.833,284.333 724.5,285C 729.518,286.012 734.185,287.845 738.5,290.5 Z"/></g>
<g><path style="opacity:1" fill="#010101" d="M 751.5,312.5 C 751.5,370.167 751.5,427.833 751.5,485.5C 747.205,493.957 740.538,499.79 731.5,503C 509.833,503.667 288.167,503.667 66.5,503C 58.013,499.34 51.6796,493.507 47.5,485.5C 47.5,427.833 47.5,370.167 47.5,312.5C 50.1099,309.999 52.2766,306.999 54,303.5C 58.8316,298.668 64.6649,295.835 71.5,295C 290.167,294.333 508.833,294.333 727.5,295C 732.172,295.838 736.505,297.504 740.5,300C 744.836,303.819 748.502,307.986 751.5,312.5 Z"/></g>
<g><path style="opacity:1" fill="#ababab" d="M 314.5,327.5 C 314.167,327.5 313.833,327.5 313.5,327.5C 313.5,326.5 313.5,325.5 313.5,324.5C 306.833,324.5 300.167,324.5 293.5,324.5C 293.5,325.5 293.5,326.5 293.5,327.5C 293.167,327.5 292.833,327.5 292.5,327.5C 292.5,326.167 292.5,324.833 292.5,323.5C 299.833,323.5 307.167,323.5 314.5,323.5C 314.5,324.833 314.5,326.167 314.5,327.5 Z"/></g>
<g><path style="opacity:1" fill="#dedede" d="M 245.5,323.5 C 249.514,323.334 253.514,323.501 257.5,324C 259.813,324.641 261.48,325.974 262.5,328C 262.387,329.28 261.72,330.113 260.5,330.5C 254.038,326.231 247.871,326.565 242,331.5C 237.334,344.717 241.834,351.217 255.5,351C 265.767,343.677 264.433,340.844 251.5,342.5C 251.5,340.833 251.5,339.167 251.5,337.5C 256.5,337.5 261.5,337.5 266.5,337.5C 267.327,348.34 262.327,354.34 251.5,355.5C 238.812,353.625 233.646,346.292 236,333.5C 238.022,328.98 241.189,325.647 245.5,323.5 Z"/></g>
<g><path style="opacity:1" fill="#ededed" d="M 289.5,327.5 C 284.833,327.5 280.167,327.5 275.5,327.5C 275.5,330.833 275.5,334.167 275.5,337.5C 279.5,337.5 283.5,337.5 287.5,337.5C 287.5,338.5 287.5,339.5 287.5,340.5C 283.298,340.183 279.298,340.517 275.5,341.5C 275.5,344.5 275.5,347.5 275.5,350.5C 280.167,350.5 284.833,350.5 289.5,350.5C 289.5,351.833 289.5,353.167 289.5,354.5C 283.5,354.5 277.5,354.5 271.5,354.5C 271.5,344.167 271.5,333.833 271.5,323.5C 277.5,323.5 283.5,323.5 289.5,323.5C 289.5,324.833 289.5,326.167 289.5,327.5 Z"/></g>
<g><path style="opacity:1" fill="#f0f0f0" d="M 313.5,327.5 C 310.833,327.5 308.167,327.5 305.5,327.5C 305.5,336.5 305.5,345.5 305.5,354.5C 304.167,354.5 302.833,354.5 301.5,354.5C 301.5,345.5 301.5,336.5 301.5,327.5C 298.833,327.5 296.167,327.5 293.5,327.5C 293.5,326.5 293.5,325.5 293.5,324.5C 300.167,324.5 306.833,324.5 313.5,324.5C 313.5,325.5 313.5,326.5 313.5,327.5 Z"/></g>
<g><path style="opacity:1" fill="#f5f5f5" d="M 327.5,323.5 C 328.833,323.5 330.167,323.5 331.5,323.5C 331.5,333.833 331.5,344.167 331.5,354.5C 330.167,354.5 328.833,354.5 327.5,354.5C 327.5,344.167 327.5,333.833 327.5,323.5 Z"/></g>
<g><path style="opacity:1" fill="#f0f0f0" d="M 356.5,327.5 C 353.5,327.5 350.5,327.5 347.5,327.5C 347.5,336.5 347.5,345.5 347.5,354.5C 346.5,354.5 345.5,354.5 344.5,354.5C 344.827,345.318 344.493,336.318 343.5,327.5C 340.833,327.5 338.167,327.5 335.5,327.5C 335.5,326.167 335.5,324.833 335.5,323.5C 342.5,323.5 349.5,323.5 356.5,323.5C 356.5,324.833 356.5,326.167 356.5,327.5 Z"/></g>
<g><path style="opacity:1" fill="#e0e0e0" d="M 378.5,323.5 C 397.275,322.43 403.775,330.763 398,348.5C 391.705,355.914 384.205,357.414 375.5,353C 367.634,345.828 366.468,337.661 372,328.5C 373.965,326.45 376.132,324.783 378.5,323.5 Z"/></g>
<g><path style="opacity:1" fill="#767676" d="M 410.5,324.5 C 408.833,324.5 407.167,324.5 405.5,324.5C 405.5,334.5 405.5,344.5 405.5,354.5C 404.506,344.347 404.172,334.014 404.5,323.5C 406.735,323.205 408.735,323.539 410.5,324.5 Z"/></g>
<g><path style="opacity:1" fill="#f4f4f4" d="M 410.5,324.5 C 415.195,331.213 419.528,338.213 423.5,345.5C 423.56,346.043 423.893,346.376 424.5,346.5C 425.497,339.197 425.831,331.863 425.5,324.5C 426.5,324.5 427.5,324.5 428.5,324.5C 428.5,334.5 428.5,344.5 428.5,354.5C 426.708,354.634 425.042,354.301 423.5,353.5C 419.194,346.184 414.861,338.851 410.5,331.5C 410.44,330.957 410.107,330.624 409.5,330.5C 408.502,338.472 408.169,346.472 408.5,354.5C 407.5,354.5 406.5,354.5 405.5,354.5C 405.5,344.5 405.5,334.5 405.5,324.5C 407.167,324.5 408.833,324.5 410.5,324.5 Z"/></g>
<g><path style="opacity:1" fill="#888888" d="M 423.5,353.5 C 425.042,354.301 426.708,354.634 428.5,354.5C 428.5,344.5 428.5,334.5 428.5,324.5C 427.5,324.5 426.5,324.5 425.5,324.5C 425.831,331.863 425.497,339.197 424.5,346.5C 423.893,346.376 423.56,346.043 423.5,345.5C 424.492,338.352 424.825,331.019 424.5,323.5C 426.167,323.5 427.833,323.5 429.5,323.5C 429.5,334.167 429.5,344.833 429.5,355.5C 426.918,355.975 424.918,355.308 423.5,353.5 Z"/></g>
<g><path style="opacity:1" fill="#090909" d="M 379.5,327.5 C 393.958,326.46 398.791,332.793 394,346.5C 387.593,353.106 381.259,353.106 375,346.5C 371.92,338.85 373.42,332.517 379.5,327.5 Z"/></g>
<g><path style="opacity:1" fill="#3c3c3c" d="M 289.5,327.5 C 285.366,328.485 281.032,328.818 276.5,328.5C 276.5,331.167 276.5,333.833 276.5,336.5C 280.702,336.183 284.702,336.517 288.5,337.5C 288.167,337.5 287.833,337.5 287.5,337.5C 283.5,337.5 279.5,337.5 275.5,337.5C 275.5,334.167 275.5,330.833 275.5,327.5C 280.167,327.5 284.833,327.5 289.5,327.5 Z"/></g>
<g><path style="opacity:1" fill="#414141" d="M 292.5,327.5 C 292.833,327.5 293.167,327.5 293.5,327.5C 296.167,327.5 298.833,327.5 301.5,327.5C 301.5,336.5 301.5,345.5 301.5,354.5C 300.507,346.016 300.174,337.349 300.5,328.5C 297.615,328.806 294.948,328.473 292.5,327.5 Z"/></g>
<g><path style="opacity:1" fill="#3a3a3a" d="M 313.5,327.5 C 313.833,327.5 314.167,327.5 314.5,327.5C 312.052,328.473 309.385,328.806 306.5,328.5C 306.826,337.349 306.493,346.016 305.5,354.5C 305.5,345.5 305.5,336.5 305.5,327.5C 308.167,327.5 310.833,327.5 313.5,327.5 Z"/></g>
<g><path style="opacity:1" fill="#7f7f7f" d="M 343.5,327.5 C 344.493,336.318 344.827,345.318 344.5,354.5C 345.5,354.5 346.5,354.5 347.5,354.5C 347.5,345.5 347.5,336.5 347.5,327.5C 350.5,327.5 353.5,327.5 356.5,327.5C 354.052,328.473 351.385,328.806 348.5,328.5C 348.5,337.5 348.5,346.5 348.5,355.5C 346.833,355.5 345.167,355.5 343.5,355.5C 343.5,346.167 343.5,336.833 343.5,327.5 Z"/></g>
<g><path style="opacity:1" fill="#9b9b9b" d="M 410.5,331.5 C 409.508,339.316 409.174,347.316 409.5,355.5C 407.901,355.768 406.568,355.434 405.5,354.5C 406.5,354.5 407.5,354.5 408.5,354.5C 408.169,346.472 408.502,338.472 409.5,330.5C 410.107,330.624 410.44,330.957 410.5,331.5 Z"/></g>
<g><path style="opacity:1" fill="#fefefe" d="M 778.5,339.5 C 778.5,346.167 778.5,352.833 778.5,359.5C 771.833,359.5 765.167,359.5 758.5,359.5C 758.5,352.833 758.5,346.167 758.5,339.5C 765.167,339.5 771.833,339.5 778.5,339.5 Z"/></g>
<g><path style="opacity:1" fill="#eaeaea" d="M 778.5,339.5 C 785.167,339.5 791.833,339.5 798.5,339.5C 798.5,346.167 798.5,352.833 798.5,359.5C 791.833,359.5 785.167,359.5 778.5,359.5C 778.5,352.833 778.5,346.167 778.5,339.5 Z"/></g>
<g><path style="opacity:1" fill="#9b9b9b" d="M 287.5,337.5 C 287.833,337.5 288.167,337.5 288.5,337.5C 288.5,338.833 288.5,340.167 288.5,341.5C 284.167,341.5 279.833,341.5 275.5,341.5C 279.298,340.517 283.298,340.183 287.5,340.5C 287.5,339.5 287.5,338.5 287.5,337.5 Z"/></g>
<g><path style="opacity:1" fill="#76ceab" d="M 107.5,364.5 C 108.946,363.387 110.613,363.22 112.5,364C 122.056,368.941 131.39,374.108 140.5,379.5C 136.36,377.993 132.36,378.327 128.5,380.5C 128.137,381.183 127.804,381.85 127.5,382.5C 127.167,382.5 126.833,382.5 126.5,382.5C 120.777,375.775 114.444,369.775 107.5,364.5 Z"/></g>
<g><path style="opacity:1" fill="#8b8b8b" d="M 274.5,377.5 C 268.797,377.375 263.13,377.708 257.5,378.5C 260.526,376.981 263.859,376.315 267.5,376.5C 270.025,376.503 272.359,376.837 274.5,377.5 Z"/></g>
<g><path style="opacity:1" fill="#f5f5f5" d="M 274.5,377.5 C 281.137,378.402 286.97,381.068 292,385.5C 292.667,386.5 292.667,387.5 292,388.5C 289.692,389.641 287.859,391.308 286.5,393.5C 269.419,381.909 255.753,384.909 245.5,402.5C 243.994,405.356 243.328,408.523 243.5,412C 243.504,414.361 243.837,416.527 244.5,418.5C 249.799,435.322 261.132,441.489 278.5,437C 286.14,433.539 290.474,427.705 291.5,419.5C 284.352,418.508 277.019,418.175 269.5,418.5C 269.5,415.5 269.5,412.5 269.5,409.5C 280.167,409.5 290.833,409.5 301.5,409.5C 301.5,414.167 301.5,418.833 301.5,423.5C 300.129,425.936 299.129,428.603 298.5,431.5C 291.868,442.823 281.868,448.49 268.5,448.5C 249.97,447.145 238.137,437.478 233,419.5C 230.584,399.433 238.751,385.767 257.5,378.5C 263.13,377.708 268.797,377.375 274.5,377.5 Z"/></g>
<g><path style="opacity:1" fill="#3b9aba" d="M 107.5,364.5 C 114.444,369.775 120.777,375.775 126.5,382.5C 126.586,383.496 126.252,384.329 125.5,385C 118.743,386.19 112.077,387.69 105.5,389.5C 105.334,381.493 105.5,373.493 106,365.5C 106.383,364.944 106.883,364.611 107.5,364.5 Z"/></g>
<g><path style="opacity:1" fill="#fafafa" d="M 461.5,380.5 C 464.833,380.5 468.167,380.5 471.5,380.5C 471.5,402.833 471.5,425.167 471.5,447.5C 468.167,447.5 464.833,447.5 461.5,447.5C 461.5,425.167 461.5,402.833 461.5,380.5 Z"/></g>
<g><path style="opacity:1" fill="#f2f2f2" d="M 543.5,380.5 C 553.506,380.334 563.506,380.5 573.5,381C 588.333,385.833 593.166,395.666 588,410.5C 585.117,415.05 581.284,418.55 576.5,421C 569.221,422.247 561.888,422.747 554.5,422.5C 554.5,430.833 554.5,439.167 554.5,447.5C 550.833,447.5 547.167,447.5 543.5,447.5C 543.5,425.167 543.5,402.833 543.5,380.5 Z"/></g>
<g><path style="opacity:1" fill="#8b8b8b" d="M 608.5,380.5 C 605.167,380.5 601.833,380.5 598.5,380.5C 598.5,402.833 598.5,425.167 598.5,447.5C 597.503,425.006 597.169,402.339 597.5,379.5C 601.371,379.185 605.038,379.518 608.5,380.5 Z"/></g>
<g><path style="opacity:1" fill="#fcfcfc" d="M 608.5,380.5 C 608.5,402.833 608.5,425.167 608.5,447.5C 605.167,447.5 601.833,447.5 598.5,447.5C 598.5,425.167 598.5,402.833 598.5,380.5C 601.833,380.5 605.167,380.5 608.5,380.5 Z"/></g>
<g><path style="opacity:1" fill="#3fa8bb" d="M 126.5,382.5 C 126.833,382.5 127.167,382.5 127.5,382.5C 129.5,384.833 131.5,387.167 133.5,389.5C 133.586,390.496 133.252,391.329 132.5,392C 124.048,393.724 115.715,395.89 107.5,398.5C 106.516,401.428 106.183,404.428 106.5,407.5C 106.768,409.099 106.434,410.432 105.5,411.5C 105.5,404.167 105.5,396.833 105.5,389.5C 112.077,387.69 118.743,386.19 125.5,385C 126.252,384.329 126.586,383.496 126.5,382.5 Z"/></g>
<g><path style="opacity:1" fill="#9ee4a8" d="M 140.5,379.5 C 148.822,383.326 156.822,387.66 164.5,392.5C 158.283,393.51 152.116,394.844 146,396.5C 144.624,396.684 143.791,397.351 143.5,398.5C 142.833,398.167 142.167,397.833 141.5,397.5C 139.167,394.5 136.5,391.833 133.5,389.5C 131.5,387.167 129.5,384.833 127.5,382.5C 127.804,381.85 128.137,381.183 128.5,380.5C 132.36,378.327 136.36,377.993 140.5,379.5 Z"/></g>
<g><path style="opacity:1" fill="#4b4b4b" d="M 570.5,391.5 C 565.5,391.5 560.5,391.5 555.5,391.5C 555.5,398.167 555.5,404.833 555.5,411.5C 560.167,411.5 564.833,411.5 569.5,411.5C 564.695,412.487 559.695,412.821 554.5,412.5C 554.5,405.167 554.5,397.833 554.5,390.5C 560.026,390.179 565.36,390.512 570.5,391.5 Z"/></g>
<g><path style="opacity:1" fill="#020202" d="M 570.5,391.5 C 579.014,395.029 580.681,400.696 575.5,408.5C 573.757,410.038 571.757,411.038 569.5,411.5C 564.833,411.5 560.167,411.5 555.5,411.5C 555.5,404.833 555.5,398.167 555.5,391.5C 560.5,391.5 565.5,391.5 570.5,391.5 Z"/></g>
<g><path style="opacity:1" fill="#45b7c1" d="M 133.5,389.5 C 136.5,391.833 139.167,394.5 141.5,397.5C 141.119,398.931 140.119,399.764 138.5,400C 127.889,402.82 117.222,405.32 106.5,407.5C 106.183,404.428 106.516,401.428 107.5,398.5C 115.715,395.89 124.048,393.724 132.5,392C 133.252,391.329 133.586,390.496 133.5,389.5 Z"/></g>
<g><path style="opacity:1" fill="#f4f4f4" d="M 630.5,399.5 C 641.019,397.839 649.852,400.839 657,408.5C 657.862,410.087 658.529,411.754 659,413.5C 659.5,424.828 659.667,436.162 659.5,447.5C 655.833,447.5 652.167,447.5 648.5,447.5C 648.762,446.022 648.429,444.689 647.5,443.5C 640.067,449.137 632.067,449.971 623.5,446C 612.562,433.772 614.562,424.106 629.5,417C 635.634,416.1 641.634,416.6 647.5,418.5C 648.295,414.072 646.295,411.239 641.5,410C 635.587,408.345 630.753,409.845 627,414.5C 617.428,412.895 616.262,409.061 623.5,403C 625.713,401.384 628.047,400.217 630.5,399.5 Z"/></g>
<g><path style="opacity:1" fill="#eaeaea" d="M 747.5,299.5 C 751.167,299.5 754.833,299.5 758.5,299.5C 758.5,306.167 758.5,312.833 758.5,319.5C 765.167,319.5 771.833,319.5 778.5,319.5C 778.5,326.167 778.5,332.833 778.5,339.5C 771.833,339.5 765.167,339.5 758.5,339.5C 758.5,346.167 758.5,352.833 758.5,359.5C 765.167,359.5 771.833,359.5 778.5,359.5C 778.5,366.5 778.5,373.5 778.5,380.5C 785.167,380.5 791.833,380.5 798.5,380.5C 798.5,387.167 798.5,393.833 798.5,400.5C 791.833,400.5 785.167,400.5 778.5,400.5C 778.5,407.167 778.5,413.833 778.5,420.5C 785.167,420.5 791.833,420.5 798.5,420.5C 798.5,427.167 798.5,433.833 798.5,440.5C 791.833,440.5 785.167,440.5 778.5,440.5C 778.5,447.167 778.5,453.833 778.5,460.5C 785.167,460.5 791.833,460.5 798.5,460.5C 798.5,467.167 798.5,473.833 798.5,480.5C 791.833,480.5 785.167,480.5 778.5,480.5C 778.5,487.167 778.5,493.833 778.5,500.5C 785.167,500.5 791.833,500.5 798.5,500.5C 798.5,507.167 798.5,513.833 798.5,520.5C 791.833,520.5 785.167,520.5 778.5,520.5C 778.5,527.167 778.5,533.833 778.5,540.5C 771.833,540.5 765.167,540.5 758.5,540.5C 758.5,533.833 758.5,527.167 758.5,520.5C 751.833,520.5 745.167,520.5 738.5,520.5C 738.5,527.167 738.5,533.833 738.5,540.5C 731.833,540.5 725.167,540.5 718.5,540.5C 718.5,533.833 718.5,527.167 718.5,520.5C 711.833,520.5 705.167,520.5 698.5,520.5C 698.5,517.833 698.5,515.167 698.5,512.5C 490.999,512.833 283.666,512.5 76.5,511.5C 292.834,511.667 509.167,511.5 725.5,511C 739.98,508.352 748.647,499.852 751.5,485.5C 751.5,427.833 751.5,370.167 751.5,312.5C 751.007,307.863 749.674,303.53 747.5,299.5 Z"/></g>
<g><path style="opacity:1" fill="#49c1c2" d="M 141.5,397.5 C 142.167,397.833 142.833,398.167 143.5,398.5C 144.833,400.167 146.167,401.833 147.5,403.5C 147.5,404.5 147.5,405.5 147.5,406.5C 134.342,408.539 121.342,411.372 108.5,415C 106.656,417.804 105.989,420.97 106.5,424.5C 106.806,427.385 106.473,430.052 105.5,432.5C 105.5,425.5 105.5,418.5 105.5,411.5C 106.434,410.432 106.768,409.099 106.5,407.5C 117.222,405.32 127.889,402.82 138.5,400C 140.119,399.764 141.119,398.931 141.5,397.5 Z"/></g>
<g><path style="opacity:1" fill="#959595" d="M 711.5,404.5 C 707.884,402.158 703.884,401.825 699.5,403.5C 703.373,401.57 707.706,400.903 712.5,401.5C 712.737,402.791 712.404,403.791 711.5,404.5 Z"/></g>
<g><path style="opacity:1" fill="#c5f5a3" d="M 164.5,392.5 C 168.568,394.862 172.568,397.195 176.5,399.5C 171.5,405.167 166.167,410.5 160.5,415.5C 158.167,413.5 155.833,411.5 153.5,409.5C 151.833,407.167 149.833,405.167 147.5,403.5C 146.167,401.833 144.833,400.167 143.5,398.5C 143.791,397.351 144.624,396.684 146,396.5C 152.116,394.844 158.283,393.51 164.5,392.5 Z"/></g>
<g><path style="opacity:1" fill="#f3f3f3" d="M 699.5,403.5 C 703.884,401.825 707.884,402.158 711.5,404.5C 702.04,425.381 692.874,446.381 684,467.5C 680.27,468.46 676.437,468.793 672.5,468.5C 675.378,460.584 678.378,452.751 681.5,445C 675.895,430.296 669.895,415.796 663.5,401.5C 667.5,401.5 671.5,401.5 675.5,401.5C 679.36,411.562 683.527,421.562 688,431.5C 691.742,422.102 695.575,412.769 699.5,403.5 Z"/></g>
<g><path style="opacity:1" fill="#fb9e77" d="M 176.5,399.5 C 181.984,401.407 186.984,404.073 191.5,407.5C 186.723,408.22 182.39,410.053 178.5,413C 174.833,415.333 171.167,417.667 167.5,420C 166.748,420.671 166.414,421.504 166.5,422.5C 166.167,422.5 165.833,422.5 165.5,422.5C 164.089,420.086 162.089,418.419 159.5,417.5C 159.833,416.833 160.167,416.167 160.5,415.5C 166.167,410.5 171.5,405.167 176.5,399.5 Z"/></g>
<g><path style="opacity:1" fill="#f3f3f3" d="M 307.5,429.5 C 307.294,424.346 307.961,419.346 309.5,414.5C 316.048,403.363 325.715,399.53 338.5,403C 354.314,411.495 357.814,423.662 349,439.5C 338.933,449.58 327.766,451.08 315.5,444C 310.893,440.229 308.227,435.396 307.5,429.5 Z"/></g>
<g><path style="opacity:1" fill="#f5f5f5" d="M 372.5,402.5 C 394.326,400.162 404.492,409.829 403,431.5C 399.233,442.765 391.4,448.431 379.5,448.5C 369.822,447.987 362.988,443.32 359,434.5C 354.474,419.898 358.974,409.231 372.5,402.5 Z"/></g>
<g><path style="opacity:1" fill="#f2f2f2" d="M 424.5,402.5 C 431.093,401.539 437.093,402.872 442.5,406.5C 443.386,405.675 443.719,404.675 443.5,403.5C 446.833,403.5 450.167,403.5 453.5,403.5C 453.667,419.17 453.5,434.837 453,450.5C 451.026,462.637 443.86,468.97 431.5,469.5C 421.909,469.213 415.242,464.713 411.5,456C 413.815,453.012 416.815,452.012 420.5,453C 423.786,459.05 428.786,461.05 435.5,459C 440.374,457.274 443.041,453.774 443.5,448.5C 443.167,447.167 442.833,445.833 442.5,444.5C 428.481,452.24 417.981,448.907 411,434.5C 406.44,420.014 410.94,409.348 424.5,402.5 Z"/></g>
<g><path style="opacity:1" fill="#f2f2f2" d="M 491.5,402.5 C 504.104,399.855 513.27,404.189 519,415.5C 519.798,417.259 519.631,418.926 518.5,420.5C 511.694,422.741 505.027,425.241 498.5,428C 495.339,429.413 492.339,431.08 489.5,433C 493.527,438.275 498.861,439.941 505.5,438C 507.677,436.485 509.844,434.985 512,433.5C 520.466,436.912 520.632,440.746 512.5,445C 488.477,452.723 476.977,443.889 478,418.5C 479.95,410.888 484.45,405.555 491.5,402.5 Z"/></g>
<g><path style="opacity:1" fill="#feaf75" d="M 191.5,407.5 C 192.833,408.167 194.167,408.833 195.5,409.5C 188.003,414.137 180.336,418.637 172.5,423C 171.177,423.816 170.511,424.983 170.5,426.5C 169.167,425.167 167.833,423.833 166.5,422.5C 166.414,421.504 166.748,420.671 167.5,420C 171.167,417.667 174.833,415.333 178.5,413C 182.39,410.053 186.723,408.22 191.5,407.5 Z"/></g>
<g><path style="opacity:1" fill="#4ecfc7" d="M 147.5,403.5 C 149.833,405.167 151.833,407.167 153.5,409.5C 153.414,410.496 153.748,411.329 154.5,412C 138.803,416.094 122.803,420.261 106.5,424.5C 105.989,420.97 106.656,417.804 108.5,415C 121.342,411.372 134.342,408.539 147.5,406.5C 147.5,405.5 147.5,404.5 147.5,403.5 Z"/></g>
<g><path style="opacity:1" fill="#434343" d="M 245.5,402.5 C 244.725,407.797 244.392,413.13 244.5,418.5C 243.837,416.527 243.504,414.361 243.5,412C 243.328,408.523 243.994,405.356 245.5,402.5 Z"/></g>
<g><path style="opacity:1" fill="#fabd72" d="M 195.5,409.5 C 200.516,410.662 203.016,413.662 203,418.5C 194.355,423.904 185.522,428.904 176.5,433.5C 174.471,431.142 172.471,428.808 170.5,426.5C 170.511,424.983 171.177,423.816 172.5,423C 180.336,418.637 188.003,414.137 195.5,409.5 Z"/></g>
<g><path style="opacity:1" fill="#090909" d="M 325.5,411.5 C 339.13,411.306 344.63,417.973 342,431.5C 337.983,438.138 332.15,440.304 324.5,438C 317.923,433.441 315.757,427.274 318,419.5C 320.028,416.308 322.528,413.641 325.5,411.5 Z"/></g>
<g><path style="opacity:1" fill="#0d0d0d" d="M 377.5,411.5 C 391.736,412.897 396.236,420.23 391,433.5C 382.162,442.261 374.662,441.261 368.5,430.5C 365.729,421.309 368.729,414.975 377.5,411.5 Z"/></g>
<g><path style="opacity:1" fill="#080808" d="M 427.5,411.5 C 443.182,412.166 447.682,419.833 441,434.5C 436.108,438.776 430.608,439.61 424.5,437C 417.068,427.379 418.068,418.879 427.5,411.5 Z"/></g>
<g><path style="opacity:1" fill="#101010" d="M 489.5,423.5 C 488.549,422.081 488.216,420.415 488.5,418.5C 493.576,410.404 499.909,409.404 507.5,415.5C 501.397,417.977 495.397,420.644 489.5,423.5 Z"/></g>
<g><path style="opacity:1" fill="#55dbc9" d="M 153.5,409.5 C 155.833,411.5 158.167,413.5 160.5,415.5C 160.167,416.167 159.833,416.833 159.5,417.5C 156.064,421.057 152.397,424.391 148.5,427.5C 147.122,426.766 145.622,426.099 144,425.5C 132.249,428.516 120.416,431.349 108.5,434C 106.656,436.804 105.989,439.97 106.5,443.5C 106.5,451.167 106.5,458.833 106.5,466.5C 105.505,455.346 105.172,444.012 105.5,432.5C 106.473,430.052 106.806,427.385 106.5,424.5C 122.803,420.261 138.803,416.094 154.5,412C 153.748,411.329 153.414,410.496 153.5,409.5 Z"/></g>
<g><path style="opacity:1" fill="#d9405a" d="M 159.5,417.5 C 162.089,418.419 164.089,420.086 165.5,422.5C 166.715,426.724 167.549,431.057 168,435.5C 168.671,436.252 169.504,436.586 170.5,436.5C 167.701,438.403 164.701,440.069 161.5,441.5C 160.504,441.586 159.671,441.252 159,440.5C 158.653,434.985 158.153,429.485 157.5,424C 157.482,421.558 158.149,419.392 159.5,417.5 Z"/></g>
<g><path style="opacity:1" fill="#c2c2c2" d="M 269.5,409.5 C 269.5,412.5 269.5,415.5 269.5,418.5C 277.019,418.175 284.352,418.508 291.5,419.5C 283.833,419.5 276.167,419.5 268.5,419.5C 268.187,415.958 268.521,412.625 269.5,409.5 Z"/></g>
<g><path style="opacity:1" fill="#8f8f8f" d="M 488.5,418.5 C 488.216,420.415 488.549,422.081 489.5,423.5C 488.791,424.404 487.791,424.737 486.5,424.5C 486.595,422.214 487.262,420.214 488.5,418.5 Z"/></g>
<g><path style="opacity:1" fill="#0d0d0d" d="M 634.5,425.5 C 637.187,425.336 639.854,425.503 642.5,426C 645.008,426.115 647.008,427.115 648.5,429C 645.212,437.311 639.212,440.311 630.5,438C 625.959,432.02 627.292,427.853 634.5,425.5 Z"/></g>
<g><path style="opacity:1" fill="#5d5d5d" d="M 301.5,423.5 C 301.655,426.716 300.655,429.383 298.5,431.5C 299.129,428.603 300.129,425.936 301.5,423.5 Z"/></g>
<g><path style="opacity:1" fill="#999999" d="M 309.5,414.5 C 307.961,419.346 307.294,424.346 307.5,429.5C 306.359,426.36 306.192,423.027 307,419.5C 307.374,417.509 308.207,415.842 309.5,414.5 Z"/></g>
<g><path style="opacity:1" fill="#e04549" d="M 165.5,422.5 C 165.833,422.5 166.167,422.5 166.5,422.5C 167.833,423.833 169.167,425.167 170.5,426.5C 172.471,428.808 174.471,431.142 176.5,433.5C 174.784,435.025 172.784,436.025 170.5,436.5C 169.504,436.586 168.671,436.252 168,435.5C 167.549,431.057 166.715,426.724 165.5,422.5 Z"/></g>
<g><path style="opacity:1" fill="#cb4070" d="M 159.5,417.5 C 158.149,419.392 157.482,421.558 157.5,424C 158.153,429.485 158.653,434.985 159,440.5C 159.671,441.252 160.504,441.586 161.5,441.5C 157.002,444.345 152.336,447.011 147.5,449.5C 146.998,444.312 146.331,439.145 145.5,434C 146.414,432.594 147.08,431.094 147.5,429.5C 147.833,428.833 148.167,428.167 148.5,427.5C 152.397,424.391 156.064,421.057 159.5,417.5 Z"/></g>
<g><path style="opacity:1" fill="#5bedcf" d="M 148.5,427.5 C 148.167,428.167 147.833,428.833 147.5,429.5C 144.5,431.833 141.833,434.5 139.5,437.5C 138.833,437.833 138.167,438.167 137.5,438.5C 137.209,437.351 136.376,436.684 135,436.5C 125.571,438.991 116.071,441.324 106.5,443.5C 105.989,439.97 106.656,436.804 108.5,434C 120.416,431.349 132.249,428.516 144,425.5C 145.622,426.099 147.122,426.766 148.5,427.5 Z"/></g>
<g><path style="opacity:1" fill="#bd3f84" d="M 147.5,429.5 C 147.08,431.094 146.414,432.594 145.5,434C 146.331,439.145 146.998,444.312 147.5,449.5C 145.287,450.773 142.954,451.773 140.5,452.5C 138.331,447.641 137.998,442.641 139.5,437.5C 141.833,434.5 144.5,431.833 147.5,429.5 Z"/></g>
<g><path style="opacity:1" fill="#b34093" d="M 139.5,437.5 C 137.998,442.641 138.331,447.641 140.5,452.5C 137.992,454.924 134.992,456.59 131.5,457.5C 131.649,454.393 131.149,451.393 130,448.5C 129.329,449.252 128.496,449.586 127.5,449.5C 130.833,445.833 134.167,442.167 137.5,438.5C 138.167,438.167 138.833,437.833 139.5,437.5 Z"/></g>
<g><path style="opacity:1" fill="#63fad2" d="M 137.5,438.5 C 134.167,442.167 130.833,445.833 127.5,449.5C 120.833,455.5 114.5,461.833 108.5,468.5C 107.167,468.5 106.5,467.833 106.5,466.5C 106.5,458.833 106.5,451.167 106.5,443.5C 116.071,441.324 125.571,438.991 135,436.5C 136.376,436.684 137.209,437.351 137.5,438.5 Z"/></g>
<g><path style="opacity:1" fill="#a23da8" d="M 131.5,457.5 C 125.23,461.308 118.897,465.141 112.5,469C 110.934,469.765 109.601,469.598 108.5,468.5C 114.5,461.833 120.833,455.5 127.5,449.5C 128.496,449.586 129.329,449.252 130,448.5C 131.149,451.393 131.649,454.393 131.5,457.5 Z"/></g>
<g><path style="opacity:1" fill="#040707" d="M 47.5,485.5 C 51.6796,493.507 58.013,499.34 66.5,503C 288.167,503.667 509.833,503.667 731.5,503C 740.538,499.79 747.205,493.957 751.5,485.5C 748.647,499.852 739.98,508.352 725.5,511C 509.167,511.5 292.834,511.667 76.5,511.5C 67.4578,510.708 59.7912,507.042 53.5,500.5C 50.6719,495.842 48.6719,490.842 47.5,485.5 Z"/></g>
<g><path style="opacity:1" fill="#f4f4f4" d="M 41.5,500.5 C 45.5,500.5 49.5,500.5 53.5,500.5C 59.7912,507.042 67.4578,510.708 76.5,511.5C 283.666,512.5 490.999,512.833 698.5,512.5C 698.5,515.167 698.5,517.833 698.5,520.5C 705.167,520.5 711.833,520.5 718.5,520.5C 718.5,527.167 718.5,533.833 718.5,540.5C 725.167,540.5 731.833,540.5 738.5,540.5C 738.5,533.833 738.5,527.167 738.5,520.5C 745.167,520.5 751.833,520.5 758.5,520.5C 758.5,527.167 758.5,533.833 758.5,540.5C 765.167,540.5 771.833,540.5 778.5,540.5C 785.167,540.5 791.833,540.5 798.5,540.5C 798.5,547.167 798.5,553.833 798.5,560.5C 791.833,560.5 785.167,560.5 778.5,560.5C 778.5,567.167 778.5,573.833 778.5,580.5C 785.167,580.5 791.833,580.5 798.5,580.5C 798.5,587.167 798.5,593.833 798.5,600.5C 791.833,600.5 785.167,600.5 778.5,600.5C 778.5,607.167 778.5,613.833 778.5,620.5C 785.167,620.5 791.833,620.5 798.5,620.5C 798.5,627.167 798.5,633.833 798.5,640.5C 791.833,640.5 785.167,640.5 778.5,640.5C 778.5,647.167 778.5,653.833 778.5,660.5C 785.167,660.5 791.833,660.5 798.5,660.5C 798.5,667.167 798.5,673.833 798.5,680.5C 791.833,680.5 785.167,680.5 778.5,680.5C 778.5,687.5 778.5,694.5 778.5,701.5C 785.167,701.5 791.833,701.5 798.5,701.5C 798.5,708.167 798.5,714.833 798.5,721.5C 791.833,721.5 785.167,721.5 778.5,721.5C 778.5,728.167 778.5,734.833 778.5,741.5C 785.167,741.5 791.833,741.5 798.5,741.5C 798.5,748.167 798.5,754.833 798.5,761.5C 791.833,761.5 785.167,761.5 778.5,761.5C 778.5,768.167 778.5,774.833 778.5,781.5C 785.167,781.5 791.833,781.5 798.5,781.5C 798.5,787.5 798.5,793.5 798.5,799.5C 631.833,799.5 465.167,799.5 298.5,799.5C 298.5,793.5 298.5,787.5 298.5,781.5C 291.833,781.5 285.167,781.5 278.5,781.5C 278.5,774.833 278.5,768.167 278.5,761.5C 271.833,761.5 265.167,761.5 258.5,761.5C 258.5,754.833 258.5,748.167 258.5,741.5C 251.833,741.5 245.167,741.5 238.5,741.5C 238.5,734.833 238.5,728.167 238.5,721.5C 231.833,721.5 225.167,721.5 218.5,721.5C 218.5,714.833 218.5,708.167 218.5,701.5C 211.833,701.5 205.167,701.5 198.5,701.5C 198.5,694.5 198.5,687.5 198.5,680.5C 191.833,680.5 185.167,680.5 178.5,680.5C 178.5,673.833 178.5,667.167 178.5,660.5C 171.833,660.5 165.167,660.5 158.5,660.5C 158.5,653.833 158.5,647.167 158.5,640.5C 151.833,640.5 145.167,640.5 138.5,640.5C 138.5,633.833 138.5,627.167 138.5,620.5C 131.833,620.5 125.167,620.5 118.5,620.5C 118.5,613.833 118.5,607.167 118.5,600.5C 111.833,600.5 105.167,600.5 98.5,600.5C 98.5,587.167 98.5,573.833 98.5,560.5C 91.8333,560.5 85.1667,560.5 78.5,560.5C 78.5,553.833 78.5,547.167 78.5,540.5C 72.8333,540.5 67.1667,540.5 61.5,540.5C 61.5,533.833 61.5,527.167 61.5,520.5C 54.8333,520.5 48.1667,520.5 41.5,520.5C 41.5,513.833 41.5,507.167 41.5,500.5 Z"/></g>
</svg>
